#!OML:ASF X:\für Bonn\!DataBase\2005_08_10_Bjorn_Final\c3d\bjorn.ASF
:FULLY-SPECIFIED
:DEGREES
485
root -0.426971 1.58805 10.9407 -2439.69 -7.22047 195.819
lowerback 10.8993 -1.07576 -9.77327
upperback 4.72575 -2.84595 -4.13762
thorax -0.893118 -1.6753 1.47714
lowerneck -20.362 -4.3606 -1.44623
upperneck 13.4465 -6.21812 3.45348
head 7.62596 -2.76048 0.599644
rclavicle 2.54444e-014 1.71949e-014
rhumerus -411.297 39.3879 288.478
rradius 121.227
rwrist -0.208097
rhand -23.5301 15.3838
rfingers 7.12502
rthumb 2.93113 -14.5758
lclavicle 2.54444e-014 1.71949e-014
lhumerus -31.5158 -41.6298 65.104
lradius 92.8983
lwrist -18.8579
lhand -52.1651 -21.6019
lfingers 7.12502
lthumb -24.6658 726.828
rfemur -208.76 -151.677 161.987
rtibia 102.921
rfoot 43.6532 13.7335
rtoes 8.60007
lfemur 145.382 186.086 158.967
ltibia 89.1841
lfoot 30.7988 7.85553
ltoes -0.186583
486
root -0.420399 1.58769 10.933 -2439.63 -7.20948 195.745
lowerback 10.8298 -1.06867 -9.7704
upperback 4.67719 -2.82683 -4.12761
thorax -0.907597 -1.6618 1.48277
lowerneck -20.3187 -4.41355 -1.39204
upperneck 13.4133 -6.32665 3.53934
head 7.612 -2.80533 0.606246
rclavicle -3.18055e-015 3.97569e-016
rhumerus -411.79 39.8459 287.737
rradius 121.06
rwrist -0.389599
rhand -23.5754 15.2255
rfingers 7.12502
rthumb 2.88744 -14.7347
lclavicle -3.18055e-015 3.97569e-016
lhumerus -31.8575 -42.1183 65.5542
lradius 93.0193
lwrist -18.5434
lhand -51.5669 -21.4871
lfingers 7.12502
lthumb -24.0923 727.02
rfemur -208.858 -151.493 161.951
rtibia 103.018
rfoot 43.6782 13.8138
rtoes 8.72291
lfemur 145.762 186.179 158.848
ltibia 88.191
lfoot 30.519 8.10073
ltoes -0.0263107
487
root -0.414096 1.58666 10.9248 -2439.56 -7.19584 195.686
lowerback 10.7638 -1.0711 -9.78234
upperback 4.62123 -2.82089 -4.10292
thorax -0.928817 -1.65392 1.51351
lowerneck -20.2697 -4.46406 -1.37135
upperneck 13.3944 -6.42357 3.63176
head 7.60295 -2.84533 0.621794
rclavicle 1.59028e-015 7.82218e-014
rhumerus -412.252 40.3083 287.023
rradius 120.881
rwrist -0.590943
rhand -23.5714 15.0152
rfingers 7.12502
rthumb 2.89132 -14.9449
lclavicle 1.59028e-015 7.82218e-014
lhumerus -32.2452 -42.6076 66.0312
lradius 93.181
lwrist -18.2423
lhand -50.9544 -21.2056
lfingers 7.12502
lthumb -23.5049 727.378
rfemur -208.962 -151.305 161.916
rtibia 103.115
rfoot 43.7132 13.7925
rtoes 8.98882
lfemur 146.127 186.28 158.739
ltibia 87.1754
lfoot 30.2259 8.34026
ltoes -0.0545397
488
root -0.40767 1.58646 10.9182 -2439.51 -7.17019 195.612
lowerback 10.7124 -1.06227 -9.782
upperback 4.58173 -2.80162 -4.08085
thorax -0.942849 -1.64104 1.53353
lowerneck -20.2543 -4.50713 -1.30193
upperneck 13.4024 -6.5146 3.67136
head 7.60472 -2.884 0.612129
rclavicle -1.27222e-014 -4.54223e-014
rhumerus -412.666 40.7225 286.326
rradius 120.661
rwrist -0.781471
rhand -23.5111 14.8515
rfingers 7.12502
rthumb 2.9495 -15.1078
lclavicle -1.27222e-014 -4.54223e-014
lhumerus -32.6023 -43.0837 66.5154
lradius 93.2935
lwrist -17.9603
lhand -50.3787 -21.0436
lfingers 7.12502
lthumb -22.9525 727.61
rfemur -209.04 -151.148 161.899
rtibia 103.205
rfoot 43.7217 13.857
rtoes 8.97425
lfemur 146.553 186.38 158.64
ltibia 86.1155
lfoot 29.9032 8.62243
ltoes 0.0342572
489
root -0.402267 1.58631 10.9112 -2439.45 -7.16123 195.535
lowerback 10.6437 -1.06643 -9.81073
upperback 4.53296 -2.79859 -4.04785
thorax -0.953301 -1.63562 1.58207
lowerneck -20.1951 -4.53682 -1.27101
upperneck 13.3831 -6.57427 3.71142
head 7.59055 -2.91003 0.613955
rclavicle 2.22639e-014 -3.89618e-014
rhumerus -413.028 41.1875 285.696
rradius 120.441
rwrist -1.01015
rhand -23.4076 14.6582
rfingers 7.12502
rthumb 3.0495 -15.2997
lclavicle 2.22639e-014 -3.89618e-014
lhumerus -33.0153 -43.5562 67.0296
lradius 93.4526
lwrist -17.6484
lhand -49.8614 -20.8455
lfingers 7.12502
lthumb -22.4561 727.869
rfemur -209.145 -150.985 161.872
rtibia 103.291
rfoot 43.7362 13.9438
rtoes 9.00311
lfemur 146.972 186.486 158.527
ltibia 85.0319
lfoot 29.5318 8.9828
ltoes 0.314375
490
root -0.396448 1.5867 10.9051 -2439.39 -7.11816 195.47
lowerback 10.5766 -1.05385 -9.77287
upperback 4.50274 -2.76938 -4.04161
thorax -0.952884 -1.61867 1.56324
lowerneck -20.1854 -4.584 -1.18901
upperneck 13.3922 -6.67815 3.76442
head 7.59414 -2.95338 0.604877
rclavicle 7.63333e-014 2.18663e-014
rhumerus -413.402 41.5355 285.009
rradius 120.188
rwrist -1.20821
rhand -23.2833 14.5052
rfingers 7.12502
rthumb 3.16955 -15.451
lclavicle 7.63333e-014 2.18663e-014
lhumerus -33.3808 -44.1312 67.4944
lradius 93.6145
lwrist -17.2968
lhand -49.4072 -20.6398
lfingers 7.12502
lthumb -22.0201 728.127
rfemur -209.216 -150.833 161.873
rtibia 103.373
rfoot 43.7473 13.9481
rtoes 9.15062
lfemur 147.418 186.596 158.447
ltibia 83.9134
lfoot 29.1579 9.17858
ltoes 0.282929
491
root -0.390343 1.58629 10.8982 -2439.33 -7.07707 195.405
lowerback 10.5179 -1.03936 -9.72479
upperback 4.45918 -2.73961 -4.05494
thorax -0.972779 -1.60001 1.51909
lowerneck -20.1262 -4.62664 -1.08066
upperneck 13.3733 -6.78139 3.80968
head 7.57891 -2.99744 0.590473
rclavicle -3.65764e-014 -2.20651e-014
rhumerus -413.774 41.8422 284.307
rradius 119.915
rwrist -1.40876
rhand -23.0966 14.3261
rfingers 7.12502
rthumb 3.34982 -15.6274
lclavicle -3.65764e-014 -2.20651e-014
lhumerus -33.7408 -44.729 67.9571
lradius 93.7764
lwrist -16.8684
lhand -48.8439 -20.5127
lfingers 7.12502
lthumb -21.4791 728.317
rfemur -209.305 -150.674 161.887
rtibia 103.458
rfoot 43.7616 13.9236
rtoes 9.24704
lfemur 147.856 186.713 158.376
ltibia 82.7772
lfoot 28.7696 9.41453
ltoes 0.598713
492
root -0.38485 1.58656 10.892 -2439.29 -7.05137 195.347
lowerback 10.4604 -1.02892 -9.71538
upperback 4.4302 -2.71777 -4.05442
thorax -0.974253 -1.58718 1.51096
lowerneck -20.1223 -4.67325 -1.04163
upperneck 13.4077 -6.87711 3.8825
head 7.59381 -3.03649 0.595328
rclavicle 2.22639e-014 1.51076e-014
rhumerus -414.102 42.1613 283.664
rradius 119.632
rwrist -1.59424
rhand -22.8761 14.1758
rfingers 7.12502
rthumb 3.56273 -15.7742
lclavicle 2.22639e-014 1.51076e-014
lhumerus -34.1353 -45.2964 68.4467
lradius 93.9884
lwrist -16.3308
lhand -48.1962 -20.4667
lfingers 7.12502
lthumb -20.8569 728.432
rfemur -209.372 -150.51 161.862
rtibia 103.54
rfoot 43.773 14.0034
rtoes 9.25417
lfemur 148.335 186.831 158.275
ltibia 81.6041
lfoot 28.3915 9.57329
ltoes 0.65939
493
root -0.379321 1.58677 10.8855 -2439.22 -7.02742 195.278
lowerback 10.3919 -1.00641 -9.6902
upperback 4.39123 -2.67866 -4.06643
thorax -0.983372 -1.56507 1.47934
lowerneck -20.0952 -4.73862 -0.996007
upperneck 13.4274 -6.99707 3.9407
head 7.59978 -3.08917 0.59189
rclavicle -3.18055e-014 -6.26172e-015
rhumerus -414.442 42.3988 283.013
rradius 119.335
rwrist -1.79246
rhand -22.5798 14.1274
rfingers 7.12502
rthumb 3.84893 -15.8176
lclavicle -3.18055e-014 -6.26172e-015
lhumerus -34.4932 -45.8947 68.9218
lradius 94.2058
lwrist -15.5952
lhand -47.3151 -20.5617
lfingers 7.12502
lthumb -20.0102 728.428
rfemur -209.464 -150.349 161.847
rtibia 103.623
rfoot 43.7805 14.0613
rtoes 9.2947
lfemur 148.814 186.941 158.179
ltibia 80.404
lfoot 28.0028 9.76839
ltoes 0.89888
494
root -0.374013 1.58673 10.8797 -2439.17 -6.97245 195.222
lowerback 10.3288 -0.994572 -9.63488
upperback 4.37101 -2.65007 -4.07204
thorax -0.975952 -1.54934 1.43865
lowerneck -20.1044 -4.80709 -1.00385
upperneck 13.4482 -7.11705 4.05312
head 7.61644 -3.13887 0.613799
rclavicle -6.36111e-015 -2.76311e-014
rhumerus -414.713 42.6265 282.421
rradius 119.039
rwrist -2.05284
rhand -22.2011 14.1121
rfingers 7.12502
rthumb 4.21462 -15.8259
lclavicle -6.36111e-015 -2.76311e-014
lhumerus -34.8443 -46.4816 69.3882
lradius 94.4816
lwrist -14.707
lhand -46.2178 -20.5978
lfingers 7.12502
lthumb -18.9551 728.499
rfemur -209.526 -150.19 161.862
rtibia 103.69
rfoot 43.8009 14.0093
rtoes 9.46676
lfemur 149.307 187.062 158.117
ltibia 79.1751
lfoot 27.6542 9.87087
ltoes 0.93213
495
root -0.368988 1.58744 10.8766 -2439.12 -6.93387 195.155
lowerback 10.272 -0.980376 -9.61498
upperback 4.34001 -2.62198 -4.06005
thorax -0.980387 -1.53305 1.43627
lowerneck -20.0645 -4.87538 -1.0607
upperneck 13.4609 -7.21903 4.15583
head 7.62316 -3.18359 0.643782
rclavicle -3.33958e-014 -2.11706e-014
rhumerus -415.014 42.8866 281.854
rradius 118.757
rwrist -2.41801
rhand -21.8072 14.1044
rfingers 7.12502
rthumb 4.59495 -15.8257
lclavicle -3.33958e-014 -2.11706e-014
lhumerus -35.2492 -47.0451 69.932
lradius 94.7586
lwrist -13.767
lhand -44.9456 -20.5302
lfingers 7.12502
lthumb -17.7313 728.681
rfemur -209.576 -150.056 161.869
rtibia 103.744
rfoot 43.7903 14.0471
rtoes 9.46437
lfemur 149.853 187.152 158.036
ltibia 77.9001
lfoot 27.3412 9.96134
ltoes 0.953869
496
root -0.364176 1.58827 10.874 -2439.07 -6.88828 195.106
lowerback 10.2026 -0.971406 -9.57716
upperback 4.31982 -2.59766 -4.06281
thorax -0.967848 -1.51971 1.40838
lowerneck -20.078 -4.93952 -1.07933
upperneck 13.5097 -7.32815 4.25317
head 7.64959 -3.22909 0.663368
rclavicle -7.95139e-015 6.37105e-014
rhumerus -415.331 43.1135 281.24
rradius 118.466
rwrist -2.74281
rhand -21.4498 14.0381
rfingers 7.12502
rthumb 4.94009 -15.8843
lclavicle -7.95139e-015 6.37105e-014
lhumerus -35.6529 -47.617 70.4524
lradius 95.1
lwrist -12.6601
lhand -43.4311 -20.3862
lfingers 7.12502
lthumb -16.2734 728.951
rfemur -209.631 -149.896 161.88
rtibia 103.795
rfoot 43.8037 14.0319
rtoes 9.5347
lfemur 150.406 187.277 157.965
ltibia 76.5893
lfoot 27.0414 10.0388
ltoes 0.986184
497
root -0.359484 1.58915 10.872 -2439.02 -6.83134 195.05
lowerback 10.1372 -0.96204 -9.52599
upperback 4.29735 -2.57204 -4.06238
thorax -0.960446 -1.50523 1.3766
lowerneck -20.0587 -4.99777 -1.08818
upperneck 13.52 -7.42655 4.33458
head 7.6565 -3.27162 0.678753
rclavicle -3.81667e-014 -2.08724e-014
rhumerus -415.665 43.3327 280.618
rradius 118.183
rwrist -3.09217
rhand -21.0986 13.9192
rfingers 7.12502
rthumb 5.27915 -15.9951
lclavicle -3.81667e-014 -2.08724e-014
lhumerus -36.0891 -48.1978 71.0058
lradius 95.4688
lwrist -11.4812
lhand -41.7835 -20.1147
lfingers 7.12502
lthumb -14.6866 729.345
rfemur -209.678 -149.742 161.906
rtibia 103.837
rfoot 43.8142 14.018
rtoes 9.6662
lfemur 150.973 187.38 157.905
ltibia 75.247
lfoot 26.7943 10.0678
ltoes 0.675202
498
root -0.355272 1.59103 10.8709 -2438.98 -6.77579 194.992
lowerback 10.0865 -0.943976 -9.48259
upperback 4.27319 -2.53819 -4.05889
thorax -0.963156 -1.48653 1.35205
lowerneck -20.0344 -5.0519 -1.06212
upperneck 13.5505 -7.52356 4.38139
head 7.66648 -3.31467 0.677348
rclavicle 1.11319e-014 9.06458e-014
rhumerus -416.066 43.5113 279.966
rradius 117.923
rwrist -3.38941
rhand -20.7383 13.716
rfingers 7.12502
rthumb 5.62699 -16.1892
lclavicle 1.11319e-014 9.06458e-014
lhumerus -36.5369 -48.7988 71.5864
lradius 95.8618
lwrist -10.1509
lhand -39.9596 -19.7134
lfingers 7.12502
lthumb -12.9288 729.866
rfemur -209.692 -149.615 161.926
rtibia 103.867
rfoot 43.8149 14.0421
rtoes 9.66086
lfemur 151.595 187.499 157.846
ltibia 73.87
lfoot 26.5002 10.1093
ltoes 0.547141
499
root -0.351599 1.59239 10.8691 -2438.93 -6.72381 194.912
lowerback 10.0017 -0.934645 -9.44577
upperback 4.26132 -2.51085 -4.05311
thorax -0.932999 -1.47276 1.33266
lowerneck -20.0219 -5.08744 -1.04005
upperneck 13.5574 -7.5932 4.43319
head 7.67027 -3.34419 0.681778
rclavicle -1.11319e-014 -1.09332e-014
rhumerus -416.386 43.7321 279.365
rradius 117.63
rwrist -3.68311
rhand -20.4275 13.5166
rfingers 7.12502
rthumb 5.92708 -16.3805
lclavicle -1.11319e-014 -1.09332e-014
lhumerus -36.9813 -49.3655 72.1533
lradius 96.3016
lwrist -8.71786
lhand -38.0314 -19.2485
lfingers 7.12502
lthumb -11.0695 730.44
rfemur -209.751 -149.482 161.953
rtibia 103.904
rfoot 43.8206 14.031
rtoes 9.75007
lfemur 152.212 187.6 157.792
ltibia 72.4688
lfoot 26.1736 10.1817
ltoes 0.565515
